<svg xmlns="http://www.w3.org/2000/svg" width="20" height="19.979" viewBox="0 0 20 19.979">
  <g id="administrator" opacity="1">
    <path id="Path_83582" data-name="Path 83582" d="M15.419,18.339a1.886,1.886,0,0,1-.46-.2c-.32-.2-.64-.42-.94-.64a.281.281,0,0,0-.28-.04c-.44.2-.9.38-1.34.58-.06.02-.1.1-.12.16l-.12.9a.9.9,0,0,1-1,.88H8.62a.837.837,0,0,1-.96-.86c-.04-.3-.08-.62-.12-.92a.277.277,0,0,0-.14-.16c-.4-.18-.82-.36-1.22-.56a.242.242,0,0,0-.3.02c-.26.22-.54.42-.82.62a.867.867,0,0,1-1.18-.08c-.62-.62-1.24-1.22-1.84-1.84a.776.776,0,0,1-.1-1.12c.18-.28.38-.56.56-.84a.281.281,0,0,0,.04-.28c-.2-.48-.38-.96-.58-1.42a.281.281,0,0,0-.14-.12,8.062,8.062,0,0,0-.94-.12.934.934,0,0,1-.88-.98V8.76A.852.852,0,0,1,.88,7.8c.32-.04.62-.08.92-.12a.172.172,0,0,0,.14-.12c.2-.5.4-.98.6-1.48A.216.216,0,0,0,2.5,5.9c-.2-.28-.42-.56-.62-.84a.872.872,0,0,1,.08-1.2c.6-.62,1.22-1.22,1.84-1.82a.8.8,0,0,1,1.18-.08c.26.2.54.4.8.6a.24.24,0,0,0,.3.02c.42-.2.88-.36,1.3-.56a.221.221,0,0,0,.14-.18A8.675,8.675,0,0,0,7.68.8a.877.877,0,0,1,.9-.8h2.68a.807.807,0,0,1,.88.72c.08.38.14.74.22,1.12.02.12.06.16.18.2.46.16.9.34,1.34.54a.3.3,0,0,0,.36-.04c.28-.22.58-.42.88-.62a.858.858,0,0,1,1.14.1c.6.6,1.22,1.2,1.82,1.82a.889.889,0,0,1,.08,1.26c-.22.28-.46.58-.66.88a.229.229,0,0,0-.02.2c.18.42.36.82.54,1.24a.235.235,0,0,0,.2.18c.34.06.7.14,1.04.18a.847.847,0,0,1,.74.9c-.04.86-.02,1.7-.02,2.56a.871.871,0,0,1-.84,1.02c-.34.06-.7.12-1.04.2a.277.277,0,0,0-.16.14c-.2.4-.36.82-.56,1.22a.24.24,0,0,0,.02.3c.22.3.44.6.64.92a.856.856,0,0,1-.1,1.12l-1.88,1.88A.849.849,0,0,1,15.419,18.339Zm-.54-4.42a2.926,2.926,0,0,0,.18-.26,8.9,8.9,0,0,0,1.22-2.7,4.226,4.226,0,0,0,.08-2,6.218,6.218,0,1,0-11.119,4.8.761.761,0,0,0,.1.12c.28-.28.52-.54.78-.8a6.449,6.449,0,0,1,1.96-1.14.841.841,0,0,1,.66.02,6.31,6.31,0,0,0,1.06.26,3.338,3.338,0,0,0,1.64-.26.978.978,0,0,1,.82.02c.28.14.6.28.88.42A6.316,6.316,0,0,1,14.879,13.919Z" fill="#fff"/>
    <path id="Path_83583" data-name="Path 83583" d="M12.539,8.4a2.5,2.5,0,0,1-2.5,2.5A2.468,2.468,0,0,1,7.52,8.4a2.51,2.51,0,0,1,5.02,0Z" fill="#fff"/>
  </g>
</svg>
