<svg xmlns="http://www.w3.org/2000/svg" width="10.76" height="12" viewBox="0 0 10.76 12">
  <g id="calendar-filled" transform="translate(-0.624)">
    <path id="Path_83637" data-name="Path 83637" d="M9.1,12c-.12-.024-.24-.048-.36-.084a2.074,2.074,0,1,1,.864.06A.092.092,0,0,0,9.54,12ZM9.66,9.756v-.48a.349.349,0,1,0-.7,0v.8a.347.347,0,0,0,.372.372h.636a.345.345,0,0,0,.372-.336.356.356,0,0,0-.372-.36Z" fill="#fff"/>
    <path id="Path_83638" data-name="Path 83638" d="M3.216,0a.531.531,0,0,1,.312.552c-.012.432,0,.876,0,1.308a.411.411,0,0,1-.8.12A.941.941,0,0,1,2.7,1.812c0-.42.012-.852,0-1.272A.472.472,0,0,1,3,0Z" fill="#fff"/>
    <path id="Path_83639" data-name="Path 83639" d="M8.16,0A.487.487,0,0,1,8.5.516c-.012.444,0,.888,0,1.332a.426.426,0,0,1-.324.42.4.4,0,0,1-.456-.228.544.544,0,0,1-.036-.192V.432A.439.439,0,0,1,7.992,0Z" fill="#fff"/>
    <path id="Path_83640" data-name="Path 83640" d="M2.28,1.248c0,.228-.012.432,0,.648a.786.786,0,0,0,.48.72.792.792,0,0,0,.84-.084.859.859,0,0,0,.336-.708V1.248H7.248c0,.192-.012.372,0,.564a1.115,1.115,0,0,0,.06.348A.814.814,0,0,0,8.88,1.968c.024-.24,0-.48,0-.732a3.009,3.009,0,0,1,.984.072,1.047,1.047,0,0,1,.684.948v5.1c0,.216-.168.324-.384.24a2.472,2.472,0,0,0-3.3,2.724.342.342,0,0,1-.372.432H1.716A1.063,1.063,0,0,1,.624,9.708V2.388a1.1,1.1,0,0,1,.468-.96,1.061,1.061,0,0,1,.564-.192C1.848,1.236,2.052,1.248,2.28,1.248Zm.408,2.988A.516.516,0,1,0,3.2,3.72.528.528,0,0,0,2.688,4.236Zm2.28-.012a.505.505,0,0,0,.5.528A.52.52,0,0,0,6,4.248a.505.505,0,0,0-.5-.528A.52.52,0,0,0,4.968,4.224Zm2.8,2.6a.5.5,0,0,0,.5-.516A.512.512,0,0,0,7.752,5.8a.516.516,0,1,0,.012,1.032Zm0-2.076a.51.51,0,0,0,.516-.5.522.522,0,0,0-.516-.528.516.516,0,1,0,0,1.032ZM3.2,6.828a.51.51,0,0,0,.516-.5A.53.53,0,0,0,3.2,5.8a.516.516,0,0,0,0,1.032Zm2.28,0a.51.51,0,1,0-.516-.5A.51.51,0,0,0,5.484,6.828Zm-.516,1.56A.522.522,0,0,0,5.5,8.9.5.5,0,0,0,6,8.388a.512.512,0,0,0-.516-.516A.5.5,0,0,0,4.968,8.388Zm-2.28-.012A.516.516,0,1,0,3.2,7.86.52.52,0,0,0,2.688,8.376Z" fill="#fff"/>
  </g>
</svg>
