<svg xmlns="http://www.w3.org/2000/svg" width="12" height="11.976" viewBox="0 0 12 11.976">
  <g id="calendar" transform="translate(0 -0.012)">
    <path id="Path_83693" data-name="Path 83693" d="M.012,3.908H12v6.761a1.249,1.249,0,0,1-1.331,1.319H1.331A1.249,1.249,0,0,1,.012,10.657V4.052Q.012,4,.012,3.908Zm2,1.487V6.929H3.548V5.395ZM10,6.941V5.407H8.464V6.941ZM6.773,5.407H5.251V6.941H6.773ZM3.548,8.655H2.014V10.19H3.548C3.548,9.662,3.548,9.159,3.548,8.655ZM10,10.178V8.643H8.464v1.534Zm-4.759,0H6.773V8.655H5.239Z" fill="#253eae"/>
    <path id="Path_83694" data-name="Path 83694" d="M3.045,1.247V.324c0-.228.1-.312.312-.312h.456c.216,0,.312.1.312.312v.923H7.852c0-.048.012-.1.012-.144V.3A.254.254,0,0,1,8.152.012h.515q.27,0,.288.288v.959h1.738A1.24,1.24,0,0,1,12,2.565V3.3H0A7.858,7.858,0,0,1,.048,2.23a1.218,1.218,0,0,1,1.223-.971H2.889A.633.633,0,0,1,3.045,1.247Z" fill="#253eae"/>
  </g>
</svg>
