<svg xmlns="http://www.w3.org/2000/svg" width="20" height="17.6" viewBox="0 0 20 17.6">
  <g id="Calendar-daily" transform="translate(0 -1.2)" opacity="1">
    <path id="Path_83577" data-name="Path 83577" d="M0,14.52c.14-.16.26-.32.4-.46A10.787,10.787,0,0,0,2.58,10.6a13.291,13.291,0,0,0,.94-4.48c0-.06.02-.12.02-.2H20c-.04.46-.06.92-.12,1.36a14.1,14.1,0,0,1-1.76,5.5A9.634,9.634,0,0,1,16.42,15a.952.952,0,0,1-.68.28H.76A.711.711,0,0,1,0,14.84C0,14.74,0,14.64,0,14.52Z" fill="#fff"/>
    <path id="Path_83578" data-name="Path 83578" d="M20,18.36a.752.752,0,0,1-.78.44H4.3c-.54,0-.74-.2-.74-.74v-1.6h12.2a2.036,2.036,0,0,0,1.48-.58A12.713,12.713,0,0,0,19.84,12a1.594,1.594,0,0,1,.16-.32Z" fill="#fff"/>
    <path id="Path_83579" data-name="Path 83579" d="M20,4.72H3.58c0-.06-.02-.1-.02-.14V3a.578.578,0,0,1,.62-.62h2.9V1.82a.581.581,0,1,1,1.16,0v.54h2.92V1.82a.594.594,0,0,1,.6-.62.573.573,0,0,1,.58.6v.56H15.3V1.82a.579.579,0,0,1,.58-.62.612.612,0,0,1,.6.64v.54h.22c.84,0,1.7.02,2.54,0a.711.711,0,0,1,.76.44Z" fill="#fff"/>
  </g>
</svg>
