<svg xmlns="http://www.w3.org/2000/svg" width="19.997" height="19.997" viewBox="0 0 19.997 19.997">
  <path id="calendar_4_" data-name="calendar (4)" d="M17.653,1.6H15.544V0H13.982V1.6H6.015V0H4.452V1.6H2.343A2.346,2.346,0,0,0,0,3.945V17.653A2.346,2.346,0,0,0,2.343,20h15.31A2.346,2.346,0,0,0,20,17.653V3.945A2.346,2.346,0,0,0,17.653,1.6ZM2.343,3.164H4.452V4.726H6.015V3.164h7.967V4.726h1.562V3.164h2.109a.782.782,0,0,1,.781.781V6.718H1.562V3.945A.782.782,0,0,1,2.343,3.164ZM13.9,8.28v2.343H10.78V8.28ZM9.217,10.623H6.093V8.28H9.217Zm-4.687,0H1.562V8.28H4.531Zm0,1.562v2.343H1.562V12.186Zm1.562,0H9.217v2.343H6.093Zm3.124,3.906v2.343H6.093V16.091Zm1.562,0H13.9v2.343H10.78Zm0-1.562V12.186H13.9v2.343Zm4.687-2.343h2.968v2.343H15.466Zm0-1.562V8.28h2.968v2.343Zm-13.9,7.03V16.091H4.531v2.343H2.343A.782.782,0,0,1,1.562,17.653Zm16.091.781H15.466V16.091h2.968v1.562A.782.782,0,0,1,17.653,18.435Z" fill="#3a78f2"/>
</svg>
