<svg xmlns="http://www.w3.org/2000/svg" width="16" height="15.996" viewBox="0 0 16 15.996">
  <g id="edit" transform="translate(0)">
    <path id="Path_83635" data-name="Path 83635" d="M16.558,3.331c-.045.2-.08.4-.138.6a3.053,3.053,0,0,1-.768,1.27q-2.587,2.625-5.168,5.254a4.066,4.066,0,0,1-3,1.261H5.9a.8.8,0,0,1-.867-.877c0-.64-.006-1.28.019-1.92A4.031,4.031,0,0,1,6.261,6.191Q8.853,3.547,11.451.915a2.969,2.969,0,0,1,5.072,1.657c.01.051.022.1.035.154Zm-9.967,6.8c.31,0,.6,0,.883,0A2.55,2.55,0,0,0,9.4,9.311q1.637-1.67,3.28-3.334c.038-.038.077-.08.1-.109-.672-.685-1.334-1.357-2-2.035a.607.607,0,0,0-.07.064C9.589,5.04,8.463,6.175,7.349,7.324a3.106,3.106,0,0,0-.5.7A4.322,4.322,0,0,0,6.591,10.127Zm7.334-5.395c.256-.272.528-.538.771-.826a1.431,1.431,0,0,0-.019-1.8,1.392,1.392,0,0,0-1.721-.371,5.666,5.666,0,0,0-1.046.944C12.581,3.366,13.243,4.038,13.925,4.732Z" transform="translate(-0.558 0)" fill="#3699FF"/>
    <path id="Path_83636" data-name="Path 83636" d="M0,8.6C0,6.9,0,5.21,0,3.514A2.357,2.357,0,0,1,1.881,1.153a2.418,2.418,0,0,1,.48-.048q2.213,0,4.422,0a.792.792,0,1,1,0,1.581c-1.078,0-2.157,0-3.235,0-.39,0-.781,0-1.171,0a.778.778,0,0,0-.822.835q0,5.088,0,10.175a.776.776,0,0,0,.822.835q4.224,0,8.45,0a.782.782,0,0,0,.822-.838c0-.8,0-1.6,0-2.4a.779.779,0,0,1,.989-.794.742.742,0,0,1,.557.707c.013.922.048,1.846-.016,2.761a2.287,2.287,0,0,1-2.336,2.141q-4.243.014-8.482,0A2.342,2.342,0,0,1,0,13.676Z" transform="translate(0.002 -0.122)" fill="#3699FF"/>
  </g>
</svg>
