<svg xmlns="http://www.w3.org/2000/svg" width="14.657" height="16" viewBox="0 0 14.657 16">
  <g id="file-2_hover" data-name="file-2 hover" transform="translate(-0.655 0)">
    <path id="Path_83699" data-name="Path 83699" d="M3.325,7.321v-5.9A1.334,1.334,0,0,1,4.747,0h7.225V2.909c0,.32.112.432.432.432h2.909V14.561a1.331,1.331,0,0,1-1.439,1.423c-3,0-6.026-.016-9.031.016a1.429,1.429,0,0,1-1.5-1.678h9.095a1.824,1.824,0,0,0,1.822-1.407,2.44,2.44,0,0,0,.048-.48V9.207a1.818,1.818,0,0,0-1.886-1.87H3.532A.844.844,0,0,0,3.325,7.321Zm4.667-4H5.307a.324.324,0,0,0-.32.336.32.32,0,0,0,.32.32h5.371a.338.338,0,0,0,.288-.384.346.346,0,0,0-.384-.272Zm0,2h2.669a.343.343,0,0,0,.32-.32.334.334,0,0,0-.32-.336H5.307a.328.328,0,0,0-.3.32.332.332,0,0,0,.3.336H7.992ZM6.649,2.669H7.912c.24,0,.4-.128.4-.32,0-.208-.144-.336-.4-.336H5.387c-.24,0-.4.128-.4.32,0,.208.144.336.4.336Z" fill="#253eae"/>
    <path id="Path_83700" data-name="Path 83700" d="M2.653,5.323v2h-.16c-.352-.016-.7.016-1.039-.032A.969.969,0,0,1,.671,6.234a1.012,1.012,0,0,1,.959-.911Z" fill="#253eae"/>
    <path id="Path_83701" data-name="Path 83701" d="M12.659,2.653V.256l2.4,2.4Z" fill="#253eae"/>
    <path id="Path_83702" data-name="Path 83702" d="M12.356,7.992H2.142A2.255,2.255,0,0,1,.655,7.656v4.092a1.83,1.83,0,0,0,1.9,1.9h9.83A1.158,1.158,0,0,0,13.634,12.4V9.271A1.155,1.155,0,0,0,12.356,7.992ZM4.412,10.038H3.165v.48H4.2v.575H3.165v1.039H2.43V9.447H4.412Zm1.694,2.126H5.371V9.447h.735Zm2.877,0H7.177V9.447h.735v2.11H9v.607Zm2.941,0H9.91V9.447h2v.607H10.645V10.5H11.7v.591H10.645v.464h1.279Z" fill="#253eae"/>
  </g>
</svg>
