<svg xmlns="http://www.w3.org/2000/svg" width="11.993" height="12" viewBox="0 0 11.993 12">
  <g id="invoice" transform="translate(-0.012)">
    <path id="Path_83641" data-name="Path 83641" d="M9.535,10.53c-.456.4-.923.768-1.367,1.175-.408.372-.66.384-1.091,0s-.864-.744-1.3-1.115c-.024-.012-.036-.036-.072-.048-.192.156-.372.324-.564.48-.312.264-.624.54-.935.8a.536.536,0,0,1-.624.12.556.556,0,0,1-.324-.564V2.243A2.161,2.161,0,0,0,1.907.168L1.835.132A.559.559,0,0,1,2.243,0H9.775a2.192,2.192,0,0,1,2.231,2.195v9.211a.559.559,0,0,1-.312.54.552.552,0,0,1-.624-.108c-.48-.408-.959-.816-1.439-1.235A.5.5,0,0,1,9.535,10.53Zm-1.907-2.9h1.6a.539.539,0,0,0,.576-.54.556.556,0,0,0-.576-.552H6.033a.824.824,0,0,0-.288.06.534.534,0,0,0-.288.612.551.551,0,0,0,.528.42C6.536,7.64,7.088,7.628,7.628,7.628Zm0-3.262c-.54,0-1.067-.012-1.607,0a.7.7,0,0,0-.372.132.519.519,0,0,0-.168.6.554.554,0,0,0,.552.36h3.19a.753.753,0,0,0,.228-.036A.531.531,0,0,0,9.8,4.809a.543.543,0,0,0-.54-.444Zm0-1.091H9.2a.664.664,0,0,0,.216-.024.527.527,0,0,0,.384-.6.54.54,0,0,0-.516-.468c-.48-.012-.947,0-1.427,0H6.033a.561.561,0,0,0-.432.168.517.517,0,0,0-.108.576.509.509,0,0,0,.492.336C6.536,3.274,7.076,3.274,7.628,3.274Z" fill="#fff"/>
    <path id="Path_83642" data-name="Path 83642" d="M2.183,6.536c-.048,0-.084.012-.12.012H.588a.535.535,0,0,1-.576-.576V2.027A1.075,1.075,0,0,1,1.007,1a1.087,1.087,0,0,1,1.175.876,2.327,2.327,0,0,1,.024.408v4.1A.283.283,0,0,0,2.183,6.536Z" fill="#fff"/>
  </g>
</svg>
