<svg xmlns="http://www.w3.org/2000/svg" width="17.933" height="20" viewBox="0 0 17.933 20">
  <g id="calendar-filled" transform="translate(-1.04)" opacity="0.7">
    <path id="Path_83571" data-name="Path 83571" d="M15.16,20c-.2-.04-.4-.08-.6-.14a3.456,3.456,0,1,1,1.44.1.153.153,0,0,0-.1.04Zm.94-3.74v-.8a.581.581,0,1,0-1.16,0V16.8a.578.578,0,0,0,.62.62h1.06a.575.575,0,0,0,.62-.56.594.594,0,0,0-.62-.6Z" fill="#fff"/>
    <path id="Path_83572" data-name="Path 83572" d="M5.36,0a.886.886,0,0,1,.52.92c-.02.72,0,1.46,0,2.18a.684.684,0,0,1-1.34.2,1.569,1.569,0,0,1-.04-.28c0-.7.02-1.42,0-2.12A.787.787,0,0,1,5,0Z" fill="#fff"/>
    <path id="Path_83573" data-name="Path 83573" d="M13.6,0a.811.811,0,0,1,.56.86c-.02.74,0,1.48,0,2.22a.709.709,0,0,1-.54.7.673.673,0,0,1-.76-.38.906.906,0,0,1-.06-.32V.72A.732.732,0,0,1,13.32,0Z" fill="#fff"/>
    <path id="Path_83574" data-name="Path 83574" d="M3.8,2.08c0,.38-.02.72,0,1.08a1.31,1.31,0,0,0,.8,1.2A1.32,1.32,0,0,0,6,4.22a1.431,1.431,0,0,0,.56-1.18V2.08h5.52c0,.32-.02.62,0,.94a1.858,1.858,0,0,0,.1.58,1.356,1.356,0,0,0,2.62-.32c.04-.4,0-.8,0-1.22a5.014,5.014,0,0,1,1.64.12,1.745,1.745,0,0,1,1.14,1.58v8.5c0,.36-.28.54-.64.4a4.12,4.12,0,0,0-5.5,4.54.57.57,0,0,1-.62.72H2.86a1.771,1.771,0,0,1-1.82-1.74V3.98a1.827,1.827,0,0,1,.78-1.6,1.768,1.768,0,0,1,.94-.32C3.08,2.06,3.42,2.08,3.8,2.08Zm.68,4.98a.86.86,0,1,0,.86-.86A.88.88,0,0,0,4.48,7.06Zm3.8-.02a.842.842,0,0,0,.84.88A.867.867,0,0,0,10,7.08a.842.842,0,0,0-.84-.88A.867.867,0,0,0,8.28,7.04Zm4.66,4.34a.837.837,0,0,0,.84-.86.853.853,0,0,0-.86-.86.86.86,0,1,0,.02,1.72Zm0-3.46a.849.849,0,0,0,.86-.84.871.871,0,0,0-.86-.88.86.86,0,1,0,0,1.72Zm-7.6,3.46a.849.849,0,0,0,.86-.84.884.884,0,0,0-.86-.88.86.86,0,0,0,0,1.72Zm3.8,0a.85.85,0,1,0-.86-.84A.849.849,0,0,0,9.14,11.38Zm-.86,2.6a.871.871,0,0,0,.88.86.837.837,0,0,0,.84-.86.854.854,0,0,0-.86-.86A.83.83,0,0,0,8.28,13.98Zm-3.8-.02a.86.86,0,1,0,.86-.86A.866.866,0,0,0,4.48,13.96Z" fill="#fff"/>
  </g>
</svg>
