<svg xmlns="http://www.w3.org/2000/svg" width="46" height="34.698" viewBox="0 0 46 34.698">
  <g id="checked" transform="translate(0 -5.75)">
    <path id="Path_83633" data-name="Path 83633" d="M46,10.12c-.11.1-.225.193-.331.3Q30.937,25.137,16.2,39.864c-.138.138-.253.294-.5.584a3.272,3.272,0,0,0-.336-.524Q7.875,32.409.368,24.9A4.724,4.724,0,0,0,0,24.587V24.5q1.918-1.918,3.841-3.836c.138-.138.244-.3.368-.455,3.873,3.873,7.677,7.682,11.509,11.509C24.366,23.028,32.968,14.4,41.593,5.75c1,.98,1.923,1.9,2.852,2.8.511.5,1.035.984,1.555,1.477C46,10.06,46,10.088,46,10.12Z" fill="#fff"/>
  </g>
</svg>
