<svg xmlns="http://www.w3.org/2000/svg" width="14" height="12.741" viewBox="0 0 14 12.741">
  <g id="filter" transform="translate(0 -0.63)">
    <path id="Path_454" data-name="Path 454" d="M12.4,12.1c-.308,0-.616.006-.924,0a.175.175,0,0,0-.193.132,1.908,1.908,0,1,1-.006-1.548.2.2,0,0,0,.23.143q.932-.008,1.862,0a.634.634,0,0,1,.2,1.232,1.022,1.022,0,0,1-.277.042C13,12.1,12.7,12.1,12.4,12.1Z" fill="#3A78F2"/>
    <path id="Path_455" data-name="Path 455" d="M1.585,6.364c.314,0,.627-.006.938,0a.166.166,0,0,0,.185-.123A1.911,1.911,0,1,1,2.733,7.8a.25.25,0,0,0-.274-.174c-.61.008-1.224.006-1.834,0a.612.612,0,0,1-.582-.409.632.632,0,0,1,.6-.857C.958,6.367,1.271,6.364,1.585,6.364Z" fill="#3A78F2"/>
    <path id="Path_456" data-name="Path 456" d="M10.184,2.537a1.908,1.908,0,1,1,1.9,1.915A1.9,1.9,0,0,1,10.184,2.537Z" fill="#3A78F2"/>
    <path id="Path_457" data-name="Path 457" d="M4.446,3.175c-1.263,0-2.523,0-3.786,0A.63.63,0,0,1,.02,2.388a.606.606,0,0,1,.47-.468A.985.985,0,0,1,.711,1.9H8.193a.928.928,0,0,1,.291.042.633.633,0,0,1-.193,1.229c-.308.006-.616,0-.924,0Z" fill="#3A78F2"/>
    <path id="Path_458" data-name="Path 458" d="M3.178,12.1H.689a.638.638,0,0,1-.672-.515.633.633,0,0,1,.6-.762c.274-.008.546,0,.82,0H5.7a.634.634,0,0,1,.647.784.651.651,0,0,1-.678.493C4.836,12.1,4.007,12.1,3.178,12.1Z" fill="#3A78F2"/>
    <path id="Path_459" data-name="Path 459" d="M10.814,7.636c-.834,0-1.669,0-2.506,0A.635.635,0,0,1,8.215,6.37c.031,0,.059,0,.09,0h5.023a.633.633,0,0,1,.207,1.24,1.047,1.047,0,0,1-.266.025C12.454,7.636,11.634,7.636,10.814,7.636Z" fill="#3A78F2"/>
  </g>
</svg>
