<svg xmlns="http://www.w3.org/2000/svg" width="14" height="11.585" viewBox="0 0 14 11.585">
  <path id="like" d="M14,4.9v.546c-.014.042-.014.084-.028.126a9.654,9.654,0,0,1-.294,1.092A7.671,7.671,0,0,1,11.871,9.24a21.361,21.361,0,0,1-4.648,3.486.425.425,0,0,1-.462,0,21.941,21.941,0,0,1-4.62-3.472,8.248,8.248,0,0,1-1.82-2.6A3.721,3.721,0,0,1,.7,2.954,3.8,3.8,0,0,1,3.724,1.232a3.775,3.775,0,0,1,2.8.91c.168.14.322.308.49.462a.906.906,0,0,0,.112-.126,3.954,3.954,0,0,1,4.48-.938,3.9,3.9,0,0,1,2.282,2.744C13.943,4.494,13.957,4.69,14,4.9Z" transform="translate(0.001 -1.209)" fill="red"/>
</svg>
