<svg xmlns="http://www.w3.org/2000/svg" width="20" height="19.98" viewBox="0 0 20 19.98">
  <g id="interfaces" opacity="0.7">
    <path id="Path_83584" data-name="Path 83584" d="M18.741,19.98H12.068A1.517,1.517,0,0,1,10.829,18.2V8.072a1.42,1.42,0,0,1,1.419-1.4c2.118-.02,4.236,0,6.334,0A1.386,1.386,0,0,1,19.92,7.712l.06.18V18.741a4.215,4.215,0,0,1-.32.679A1.475,1.475,0,0,1,18.741,19.98Z" fill="#fff"/>
    <path id="Path_83585" data-name="Path 83585" d="M19.98,3.756c-.02.04-.02.08-.04.12A1.441,1.441,0,0,1,18.482,5H8.232A1.453,1.453,0,0,1,6.673,3.457V1.538A1.451,1.451,0,0,1,7.852.02.07.07,0,0,0,7.892,0H18.781a1.5,1.5,0,0,1,.879.539,7.934,7.934,0,0,1,.34.719C19.98,2.078,19.98,2.917,19.98,3.756Z" fill="#fff"/>
    <path id="Path_83586" data-name="Path 83586" d="M0,7.892c.02-.06.04-.1.06-.16A1.451,1.451,0,0,1,1.419,6.673c2.118,0,4.236-.02,6.334,0A1.416,1.416,0,0,1,9.171,8.112c.02.979.02,1.958,0,2.917a1.446,1.446,0,0,1-1.5,1.439H1.518A1.46,1.46,0,0,1,.04,11.329c0-.02-.02-.04-.04-.06C0,10.15,0,9.011,0,7.892Z" fill="#fff"/>
    <path id="Path_83587" data-name="Path 83587" d="M0,15.385c.02-.08.06-.14.08-.22a1.434,1.434,0,0,1,1.339-1c2.118,0,4.216-.02,6.334,0a1.411,1.411,0,0,1,1.419,1.419c.02.979.02,1.978,0,2.957a1.431,1.431,0,0,1-1.159,1.4c-.02,0-.04.02-.06.04H1.279A1.568,1.568,0,0,1,.2,19.221a4.068,4.068,0,0,1-.18-.44C0,17.642,0,16.5,0,15.385Z" fill="#fff"/>
    <path id="Path_83588" data-name="Path 83588" d="M2.817,0a3.8,3.8,0,0,1,.8.28,2.479,2.479,0,0,1,1.3,2.857A2.518,2.518,0,0,1,2.378,5,2.489,2.489,0,0,1,.04,2.917a.153.153,0,0,0-.04-.1V2.2c.02-.04.02-.08.04-.1A2.475,2.475,0,0,1,1.818.12c.12-.04.24-.06.38-.1C2.4,0,2.6,0,2.817,0Z" fill="#fff"/>
  </g>
</svg>
