<svg xmlns="http://www.w3.org/2000/svg" width="14" height="13.048" viewBox="0 0 14 13.048">
  <g id="Icon" transform="translate(-8 -9)">
    <path id="dropdown-down-arrow" d="M6.581,8.271c.078-.118.131-.2.183-.261q2.331-2.331,4.648-4.661a.935.935,0,0,1,1.423,1.214l-.157.157C10.9,6.495,9.127,8.284,7.351,10.059a.977.977,0,0,1-1.593,0q-2.7-2.7-5.392-5.405a1.338,1.338,0,0,1-.339-.588A.894.894,0,0,1,.5,3.087a.931.931,0,0,1,1.1.144c.235.222.457.457.679.679L6.385,8.023C6.437,8.088,6.476,8.14,6.581,8.271Z" transform="translate(18.471 8.995) rotate(90)" fill="rgba(0,0,0,0.4)"/>
    <path id="dropdown-down-arrow-2" data-name="dropdown-down-arrow" d="M6.581,8.271c.078-.118.131-.2.183-.261q2.331-2.331,4.648-4.661a.935.935,0,0,1,1.423,1.214l-.157.157C10.9,6.495,9.127,8.284,7.351,10.059a.977.977,0,0,1-1.593,0q-2.7-2.7-5.392-5.405a1.338,1.338,0,0,1-.339-.588A.894.894,0,0,1,.5,3.087a.931.931,0,0,1,1.1.144c.235.222.457.457.679.679L6.385,8.023C6.437,8.088,6.476,8.14,6.581,8.271Z" transform="translate(24.971 8.995) rotate(90)" fill="rgba(0,0,0,0.2)"/>
  </g>
</svg>
