<svg id="Icon" xmlns="http://www.w3.org/2000/svg" width="14" height="13.048" viewBox="0 0 14 13.048">
  <path id="dropdown-down-arrow" d="M6.576,2.2c.078.118.131.2.183.261q2.331,2.331,4.648,4.661a.935.935,0,0,0,1.423-1.214l-.157-.157C10.9,3.976,9.122,2.187,7.346.411a.977.977,0,0,0-1.593,0Q3.05,3.114.361,5.816A1.338,1.338,0,0,0,.021,6.4a.894.894,0,0,0,.47.979.931.931,0,0,0,1.1-.144c.235-.222.457-.457.679-.679L6.38,2.448C6.432,2.383,6.471,2.331,6.576,2.2Z" transform="translate(14 0) rotate(90)" fill="rgba(0,0,0,0.4)"/>
  <path id="dropdown-down-arrow-2" data-name="dropdown-down-arrow" d="M6.576,2.2c.078.118.131.2.183.261q2.331,2.331,4.648,4.661a.935.935,0,0,0,1.423-1.214l-.157-.157C10.9,3.976,9.122,2.187,7.346.411a.977.977,0,0,0-1.593,0Q3.05,3.114.361,5.816A1.338,1.338,0,0,0,.021,6.4a.894.894,0,0,0,.47.979.931.931,0,0,0,1.1-.144c.235-.222.457-.457.679-.679L6.38,2.448C6.432,2.383,6.471,2.331,6.576,2.2Z" transform="translate(7.5 0) rotate(90)" fill="rgba(0,0,0,0.2)"/>
</svg>
