<svg xmlns="http://www.w3.org/2000/svg" width="18" height="18" viewBox="0 0 18 18">
  <g id="minus" transform="translate(-81 -924)">
    <rect id="Rectangle_830" data-name="Rectangle 830" width="18" height="18" rx="4" transform="translate(81 924)" fill="#253eae"/>
    <path id="minus-2" data-name="minus" d="M0,6.815a3.751,3.751,0,0,1,.266-.588,1.287,1.287,0,0,1,1.105-.546H12.524a1.514,1.514,0,0,1,1.021.35,1.309,1.309,0,0,1,0,1.959,1.441,1.441,0,0,1-.966.35H1.4A1.337,1.337,0,0,1,.014,7.248c0-.014-.014-.028-.028-.042C0,7.052,0,6.941,0,6.815Z" transform="translate(83.014 925.989)" fill="#fff"/>
  </g>
</svg>
