<svg xmlns="http://www.w3.org/2000/svg" width="12" height="10.528" viewBox="0 0 12 10.528">
  <g id="stacked-files" transform="translate(0.002 -0.741)">
    <path id="Path_83643" data-name="Path 83643" d="M12,3.779a.765.765,0,0,1-.432.432Q8.938,5.6,6.335,7.007a.644.644,0,0,1-.672,0Q3.017,5.585.348,4.175a.521.521,0,0,1-.276-.744A.564.564,0,0,1,.4,3.179c1.572-.7,3.143-1.4,4.715-2.1.216-.1.42-.18.624-.276a.535.535,0,0,1,.5,0q2.7,1.206,5.387,2.4a.594.594,0,0,1,.348.408A.381.381,0,0,1,12,3.779Z" fill="#fff"/>
    <path id="Path_83644" data-name="Path 83644" d="M12,5.939a.681.681,0,0,1-.384.432Q8.968,7.774,6.335,9.19a.65.65,0,0,1-.66,0C3.9,8.23,2.136,7.295.372,6.347A.852.852,0,0,1,.1,6.119a.487.487,0,0,1,.024-.6A.5.5,0,0,1,.7,5.363l.144.072q2.52,1.35,5.027,2.687a.238.238,0,0,0,.252,0l5.039-2.7a.521.521,0,0,1,.624.012,1.022,1.022,0,0,1,.2.3A1.164,1.164,0,0,1,12,5.939Z" fill="#fff"/>
    <path id="Path_83645" data-name="Path 83645" d="M12,7.954a.7.7,0,0,1-.384.42c-1.764.924-3.5,1.86-5.255,2.8a.7.7,0,0,1-.72,0c-1.764-.948-3.527-1.884-5.3-2.831A.538.538,0,0,1,.024,7.69a.512.512,0,0,1,.66-.312,1.432,1.432,0,0,1,.192.1q2.5,1.332,5,2.675a.2.2,0,0,0,.228,0q2.537-1.368,5.075-2.711a.5.5,0,0,1,.636.036,1.444,1.444,0,0,1,.18.288Z" fill="#fff"/>
  </g>
</svg>
