<svg xmlns="http://www.w3.org/2000/svg" width="36" height="32.582" viewBox="0 0 36 32.582">
  <path id="Warnning" d="M0,29.447V28.3a19.11,19.11,0,0,1,.792-2.16C4.968,18.864,9.144,11.664,13.32,4.464a5.194,5.194,0,0,1,2.808-2.448,5.28,5.28,0,0,1,6.552,2.448c4.176,7.2,8.352,14.472,12.528,21.671a5.11,5.11,0,0,1-.144,5.688,5.328,5.328,0,0,1-4.68,2.448H4.968a5.186,5.186,0,0,1-4.32-2.88A10.268,10.268,0,0,1,0,29.447ZM19.728,18h0c.072-.72.144-1.512.144-2.232a15.6,15.6,0,0,0,.072-2.592,1.864,1.864,0,0,0-1.728-1.8,1.983,1.983,0,0,0-2.088,1.152,4.02,4.02,0,0,0-.216,1.584l.432,6.912c0,.576.072,1.08.072,1.656A1.476,1.476,0,0,0,18,24.119a1.461,1.461,0,0,0,1.44-1.512C19.584,21.024,19.656,19.512,19.728,18Zm-1.8,11.448a2.038,2.038,0,0,0,2.016-1.872A1.971,1.971,0,0,0,18,25.487,2.012,2.012,0,0,0,15.984,27.5,1.983,1.983,0,0,0,17.928,29.447Z" transform="translate(0 -1.69)" fill="#fff"/>
</svg>
